<svg width="70" height="70" viewBox="0 0 70 70" xmlns="http://www.w3.org/2000/svg">
  <rect x="0.5" y="0.5" width="69" height="69" fill="lightblue" stroke="black" stroke-width="5"/>
  <g>
    <rect x="8" y="7" width="54" height="2" />
    <rect x="8" y="11" width="54" height="2" />

    <rect x="16" y="18" width="6" height="6" />
    <rect x="24" y="18" width="6" height="6" />
    <rect x="32" y="18" width="6" height="6" />
    <rect x="40" y="18" width="6" height="6" />
    <rect x="48" y="18" width="6" height="6" fill="red"/>
    <rect x="56" y="18" width="6" height="6" fill="red"/>

    <rect x="8" y="28" width="6" height="6" />
    <rect x="16" y="28" width="6" height="6" />
    <rect x="24" y="28" width="6" height="6" />
    <rect x="32" y="28" width="6" height="6" />
    <rect x="40" y="28" width="6" height="6" />
    <rect x="48" y="28" width="6" height="6" fill="red"/>
    <rect x="56" y="28" width="6" height="6" fill="red"/>

    <rect x="8" y="38" width="6" height="6" />
    <rect x="16" y="38" width="6" height="6" />
    <rect x="24" y="38" width="6" height="6" />
    <rect x="32" y="38" width="6" height="6" />
    <rect x="40" y="38" width="6" height="6" />
    <rect x="48" y="38" width="6" height="6" fill="red"/>
    <rect x="56" y="38" width="6" height="6" fill="red"/>

    <rect x="8" y="48" width="6" height="6" />
    <rect x="16" y="48" width="6" height="6" />
    <rect x="24" y="48" width="6" height="6" />
    <rect x="32" y="48" width="6" height="6" />
    <rect x="40" y="48" width="6" height="6" />
    <rect x="48" y="48" width="6" height="6" fill="red"/>
    <rect x="56" y="48" width="6" height="6" fill="red"/>

    <rect x="8" y="58" width="6" height="6" />
    <rect x="16" y="58" width="6" height="6" />
    <rect x="24" y="58" width="6" height="6" />
  </g>
</svg>
